<svg width="120" height="120" viewBox="0 0 120 120" fill="none" xmlns="http://www.w3.org/2000/svg">
<path d="M52.8994 111.971C52.8994 116.311 56.5884 120 60.9283 120C65.2683 120 68.9573 116.528 68.9573 111.971H52.8994Z" fill="#616466"/>
<path d="M46.8228 91.7903H75.0326C76.7685 83.1103 81.9765 74.8644 87.6184 65.9675C94.1284 55.7685 100.855 45.1356 100.855 34.9367C100.855 15.8409 83.0615 0 60.9277 0C39.0109 0 21 15.8409 21 35.1537C21 45.3526 27.7269 55.9855 34.2369 66.1845C39.8788 74.8644 45.0868 83.3273 46.8228 91.7903Z" fill="#FFCE31"/>
<path d="M46.1703 57.7218C46.1703 57.2878 46.3873 57.0708 46.6043 57.0708C46.8213 57.0708 46.8213 57.0708 46.8213 57.0708C46.8213 57.0708 47.0383 57.2878 47.2553 57.2878C47.9063 57.9388 48.3403 59.0237 48.7743 60.1087C49.2083 60.3257 49.2083 60.7597 49.4253 61.1937C48.5573 61.1937 47.6893 60.7597 47.2553 60.3257C46.3873 59.6747 46.1703 58.3727 46.1703 57.7218ZM59.8412 50.5608C60.0582 50.1268 60.4922 49.9098 60.9262 49.9098C61.3602 49.9098 61.7942 50.1268 62.2282 50.7778C62.4452 51.2118 62.4452 52.0798 62.0112 52.9478C61.7942 53.5988 61.3602 54.0328 60.9262 54.6838C60.4922 54.0328 60.0582 53.5988 59.8412 52.9478C59.4072 52.0798 59.4072 51.2118 59.8412 50.5608ZM72.8611 60.1087C73.2951 59.0237 73.7291 57.9388 74.3801 57.2878C74.5971 57.0708 74.5971 57.0708 74.8141 57.0708H75.0311C75.2481 57.0708 75.4651 57.2878 75.4651 57.7218C75.6821 58.5897 75.2481 59.6747 74.3801 60.3257C74.1631 60.7597 73.2951 61.1937 72.6441 61.1937C72.6441 60.7597 72.8611 60.3257 72.8611 60.1087ZM49.8593 63.1467C50.0763 64.2317 50.5103 65.5337 50.7273 66.6187C51.1613 68.7887 51.8123 70.9586 52.2463 72.9116C53.9823 80.5066 55.7183 87.0165 57.0203 91.7905H58.1052C57.0203 86.7995 55.7183 80.2896 53.9823 72.6946C53.5483 70.5246 53.1143 68.5717 52.4633 66.4017C52.2463 65.3167 52.0293 64.2317 51.8123 63.1467C53.5483 62.7127 57.0203 61.4107 60.9262 57.2878C64.8322 61.4107 68.5212 62.7127 70.0401 63.1467C69.8232 64.2317 69.6062 65.3167 69.3892 66.4017C68.9552 68.5717 68.5212 70.7416 67.8702 72.6946C66.1342 80.2896 64.8322 86.7995 63.7472 91.7905H64.8322C66.1342 86.7995 67.6532 80.2896 69.6062 72.9116C70.0401 70.9586 70.6911 68.7887 71.1251 66.6187C71.3421 65.5337 71.7761 64.2317 71.9931 63.1467C73.5121 63.1467 75.0311 62.4957 76.1161 61.6277C77.2011 60.5427 77.8521 59.0237 77.6351 57.5048C77.4181 56.6368 76.9841 55.5518 75.8991 55.1178C75.4651 54.9008 74.8141 54.9008 74.1631 55.1178C73.7291 55.3348 73.2951 55.7688 72.8611 55.9858C71.9931 57.0708 71.5591 58.3727 71.1251 59.4577C70.9081 60.1087 70.6911 60.7597 70.4741 61.1937C70.4741 61.1937 68.7382 61.4107 65.0492 58.8067C63.0962 57.5048 62.6622 56.6368 62.0112 55.9858C62.6622 55.3348 63.3132 54.4668 63.7472 53.5988C63.9642 53.1648 64.1812 52.5138 64.1812 51.8628C64.1812 51.2118 64.1812 50.5608 63.7472 49.9098C63.5302 49.2588 62.8792 48.6078 62.2282 48.3908C61.7942 48.1738 61.3602 48.1738 60.9262 48.1738C60.4922 48.1738 60.0582 48.1738 59.8412 48.3908C58.9732 48.6078 58.3222 49.2588 58.1052 49.9098C57.6712 50.5608 57.6712 51.2118 57.6712 51.8628C57.6712 52.5138 57.8882 53.1648 58.1052 53.5988C58.5392 54.4668 59.1902 55.3348 59.8412 55.9858C59.1902 56.6368 58.7562 57.5048 56.5863 59.0237C53.1143 61.4107 51.3783 61.1937 51.3783 61.1937C51.1613 60.7597 50.9443 60.1087 50.9443 59.4577C50.2933 58.3727 50.0763 57.0708 48.9913 55.9858C48.7743 55.7688 48.3403 55.3348 47.6893 55.1178C47.0383 54.9008 46.6043 54.9008 45.9533 55.1178C44.8684 55.5518 44.2174 56.4198 44.2174 57.2878C44.0004 58.8067 44.6514 60.3257 45.7363 61.4107C46.8213 62.4957 48.3403 62.9297 49.8593 63.1467Z" fill="#C79127"/>
<path d="M75.2502 95.6963H46.6064V99.3853H75.2502V95.6963Z" fill="#94989B"/>
<path d="M73.5132 103.074H48.7754V106.763H73.5132V103.074Z" fill="#94989B"/>
<path d="M73.5132 99.3857H48.7754V103.075H73.5132V99.3857Z" fill="#616466"/>
<path d="M75.2492 95.6963L48.7754 103.074V106.763L75.2492 99.3853V95.6963Z" fill="#94989B"/>
<path d="M71.3443 110.453H50.7295V114.142H71.3443V110.453Z" fill="#94989B"/>
<path d="M71.3443 106.764H50.7295V110.453H71.3443V106.764Z" fill="#616466"/>
<path d="M73.2973 103.074L50.7295 110.452V114.141L73.2973 106.763V103.074Z" fill="#94989B"/>
</svg>
