<svg width="120" height="120" viewBox="0 0 120 120" fill="none" xmlns="http://www.w3.org/2000/svg">
<g clip-path="url(#clip0_163_2277)">
<path d="M84.4783 64.9998C84.4783 64.9998 20.7827 59.9998 21.6522 69.3476C21.6522 69.3476 18.3914 91.7389 26.2175 105.217C37.9566 125.435 83.6088 128.695 94.9131 91.3041C97.087 83.6954 95.3479 63.6954 84.4783 64.9998Z" fill="#FFDD67"/>
<path d="M72.0869 74.3478C72.0869 78.913 75.7826 82.6087 80.5652 82.6087C85.3478 82.6087 89.0434 78.913 89.0434 74.3478V8.26087C89.2608 3.69565 85.3478 0 80.7826 0C76 0 72.0869 3.69565 72.0869 8.26087V74.3478Z" fill="#FFDD67"/>
<path d="M76.87 80.6522C81.6526 80.6522 85.3483 76.9565 85.3483 72.1739V6.30435C85.3483 3.69565 84.2613 1.52174 82.5222 0C86.2178 0.869565 89.2613 4.34783 89.2613 8.26087V74.1304C89.2613 78.6957 85.5656 82.6087 80.783 82.6087C78.6091 82.6087 76.6526 81.7391 75.1309 80.4348C75.5656 80.6522 76.2178 80.6522 76.87 80.6522Z" fill="#EBA352"/>
<path d="M21.6523 56.0867C21.6523 51.304 25.348 47.6084 30.1306 47.6084H30.348C34.9132 47.6084 38.8263 51.5214 38.8263 56.0867V69.3475C38.8263 74.1301 35.1306 77.8258 30.348 77.8258H30.1306C25.5654 77.8258 21.6523 73.9127 21.6523 69.3475V56.0867Z" fill="#FFDD67"/>
<path d="M38.609 48.4783C38.609 43.6957 42.3046 40 47.0873 40C51.6525 40 55.5655 43.913 55.5655 48.4783V61.7391C55.5655 66.5217 51.8699 70.2174 47.0873 70.2174H46.8699C42.3046 70.2174 38.3916 66.3043 38.3916 61.7391V48.4783H38.609Z" fill="#FFDD67"/>
<path d="M55.5654 47.6091C55.5654 42.8265 59.2611 39.1309 64.0437 39.1309H64.2611C68.8263 39.1309 72.7393 43.0439 72.7393 47.6091V60.87C72.7393 65.6526 69.0437 69.3483 64.2611 69.3483H64.0437C59.4785 69.3483 55.5654 65.4352 55.5654 60.87V47.6091Z" fill="#FFDD67"/>
<path d="M27.7393 74.7828C32.5219 74.7828 36.2175 71.0872 36.2175 66.3046V53.0437C36.2175 51.7393 36.0001 50.6524 35.348 49.5654C37.3045 51.0872 38.6088 53.4785 38.6088 56.3046V69.5654C38.6088 74.348 34.9132 78.0437 30.348 78.0437C26.8697 78.0437 24.0436 76.0872 22.7393 73.0437C24.0436 73.9133 25.7827 74.7828 27.7393 74.7828Z" fill="#EBA352"/>
<path d="M44.4785 66.9561C49.2611 66.9561 52.9568 63.2604 52.9568 58.4778V45.4343C52.9568 44.13 52.7394 43.043 52.0872 41.9561C54.2611 43.4778 55.5655 45.8691 55.5655 48.6952V61.9561C55.5655 66.7387 51.8698 70.4343 47.3046 70.4343C43.609 70.2169 40.7829 68.2604 39.4785 65.2169C40.7829 66.3039 42.522 66.9561 44.4785 66.9561Z" fill="#EBA352"/>
<path d="M61.4346 66.0869C66.2172 66.0869 69.9128 62.3913 69.9128 57.6087V44.5652C69.9128 43.2608 69.6954 42.1739 69.0433 41.0869C70.9998 42.6087 72.3041 45.2174 72.3041 47.826V60.8695C72.3041 65.6521 68.6085 69.3478 63.8259 69.3478H64.0433C60.565 69.3478 57.7389 67.3913 56.4346 64.3478C57.7389 65.4347 59.6954 66.0869 61.4346 66.0869Z" fill="#EBA352"/>
<path d="M76.8695 77.6088C67.3043 73.0436 45.5652 81.0871 49.6956 101.087C49.6956 80.2175 68.6086 76.7393 76.8695 77.6088Z" fill="#EBA352"/>
<path d="M73.1739 56.9563C66.2174 53.0433 64.913 59.3477 53.1739 59.7824C47.9565 59.9998 45.7826 70.652 53.6087 74.3477C64.4783 79.7824 65.3478 72.1737 67.9565 74.9998C70.5652 78.2607 73.3913 78.9129 75.5652 82.6085C77.3044 85.2172 90.7826 81.0868 92.087 75.652C94.913 65.2172 84.0435 63.4781 73.1739 56.9563Z" fill="#EBA352"/>
<path d="M74.0433 58.9131C66.8694 54.5653 65.3476 61.3044 53.1737 61.7392C47.9563 61.9566 45.565 72.8262 53.6085 76.9566C64.9129 82.6088 65.7824 74.5653 68.6085 77.6088C71.4346 80.8696 74.2607 81.5218 76.652 85.2175C78.3911 88.0436 73.6085 98.4783 73.6085 98.4783C73.6085 98.4783 87.5216 108.261 90.3476 102.609C95.565 92.3914 94.0433 84.3479 93.8259 78.2609C93.6085 64.3479 85.565 65.6522 74.0433 58.9131Z" fill="#FFDD67"/>
<path d="M87.9568 65.8691C95.5655 69.3474 95.3481 89.13 89.4785 98.6952C75.3481 122.608 44.2611 122.173 29.4785 109.565C43.1742 124.13 76.2176 125.652 91.8698 100.869C97.9568 90.8691 99.9133 68.2604 87.9568 65.8691Z" fill="#EBA352"/>
<path d="M75.1308 85.6526C75.7829 86.5221 75.5655 88.0439 75.3482 89.783C76.2177 87.1743 76.6525 84.3482 76.0003 83.0439C73.3916 79.3482 71.8699 78.4786 69.0438 75.2178C66.2177 72.1743 65.3482 80.0004 54.0438 74.5656C49.9134 72.3917 48.609 68.4786 48.8264 65.2178C47.3047 68.696 48.1742 74.3482 53.3916 77.1743C64.696 82.6091 65.5655 74.783 68.3916 77.8265C71.2177 81.0873 72.5221 81.9569 75.1308 85.6526Z" fill="#EBA352"/>
</g>
<defs>
<clipPath id="clip0_163_2277">
<rect width="75.6522" height="120" fill="white" transform="translate(21)"/>
</clipPath>
</defs>
</svg>
